<?xml version="1.0" standalone="no"?>
<!DOCTYPE svg PUBLIC "-//W3C//DTD SVG 20010904//EN"
 "http://www.w3.org/TR/2001/REC-SVG-20010904/DTD/svg10.dtd">
<svg version="1.0" xmlns="http://www.w3.org/2000/svg"
 width="1024.000000pt" height="1024.000000pt" viewBox="0 0 1024.000000 1024.000000"
 preserveAspectRatio="xMidYMid meet">

<g transform="translate(0.000000,1024.000000) scale(0.100000,-0.100000)"
fill="#000000" stroke="none">
<path d="M5011 8012 c-19 -9 -43 -28 -53 -42 -9 -14 -425 -1085 -923 -2380
-499 -1295 -915 -2375 -926 -2400 -21 -47 -51 -84 -84 -103 -13 -8 -117 -14
-308 -17 l-289 -5 -24 -28 c-34 -39 -34 -115 0 -154 l24 -28 752 0 752 0 24
28 c34 39 34 115 0 154 l-24 28 -281 5 c-295 5 -304 7 -303 52 1 37 541 1430
564 1455 52 56 9 54 1200 51 1090 -3 1097 -3 1124 -24 15 -11 36 -31 46 -45
17 -22 540 -1368 554 -1426 4 -14 -2 -29 -15 -42 -20 -20 -31 -21 -276 -21
-288 0 -314 -5 -334 -60 -22 -65 -7 -121 40 -146 43 -22 1467 -21 1509 1 55
29 63 130 13 177 -24 23 -28 23 -311 28 -310 5 -313 6 -356 63 -13 17 -434
1099 -936 2402 -501 1304 -920 2389 -930 2413 -15 33 -29 47 -62 62 -54 24
-122 25 -167 2z m107 -424 c16 -20 1032 -2664 1032 -2687 0 -11 -10 -27 -22
-35 -20 -14 -135 -16 -1038 -16 -921 0 -1018 2 -1039 16 -17 12 -22 23 -18 43
4 25 1009 2637 1028 2673 11 21 42 24 57 6z"/>
</g>
</svg>
