<?xml version="1.0" standalone="no"?>
<!DOCTYPE svg PUBLIC "-//W3C//DTD SVG 20010904//EN"
 "http://www.w3.org/TR/2001/REC-SVG-20010904/DTD/svg10.dtd">
<svg version="1.0" xmlns="http://www.w3.org/2000/svg"
 width="512.000000pt" height="512.000000pt" viewBox="0 0 512.000000 512.000000"
 preserveAspectRatio="xMidYMid meet">
<metadata>
Created by potrace 1.15, written by Peter Selinger 2001-2017
</metadata>
<g transform="translate(0.000000,512.000000) scale(0.100000,-0.100000)"
fill="#000000" stroke="none">
<path d="M2524 4012 c-12 -2 -29 -11 -37 -20 -9 -9 -222 -554 -475 -1210 -252
-656 -468 -1205 -479 -1220 -20 -27 -21 -27 -169 -30 -84 -2 -154 -8 -161 -14
-16 -13 -17 -60 -1 -76 17 -17 759 -17 776 0 15 15 15 61 0 76 -8 8 -54 12
-143 12 -93 0 -136 4 -149 13 -17 13 -10 36 120 373 76 197 146 366 156 376
26 26 110 30 638 26 436 -3 499 -5 521 -19 19 -13 53 -91 163 -379 131 -343
138 -364 120 -377 -13 -9 -55 -13 -149 -13 -89 0 -135 -4 -143 -12 -17 -17
-15 -63 3 -78 19 -16 752 -15 772 2 16 13 17 60 1 76 -8 8 -55 12 -144 12
-148 0 -177 7 -197 47 -8 15 -214 546 -457 1178 -397 1033 -479 1245 -484
1245 -1 0 -15 4 -31 8 -17 4 -40 6 -51 4z m80 -329 c231 -592 472 -1230 469
-1240 -2 -6 -14 -14 -26 -17 -29 -8 -976 -7 -1004 0 -13 4 -23 14 -23 25 0 10
111 305 246 656 135 351 251 650 256 666 18 49 35 30 82 -90z"/>
</g>
</svg>
